<svg width="287" height="318" viewBox="0 0 287 318" fill="none" xmlns="http://www.w3.org/2000/svg">
<ellipse cx="143.5" cy="169.358" rx="143.5" ry="148.642" fill="#1503E0"/>
<path d="M76.592 218H37.68V214.032L49.712 204.56V126.992L36.4 122.512L38.96 117.392H77.872V121.36L65.712 130.832V208.272L79.152 212.88L76.592 218ZM171.772 218.128H147.452V174.992C147.452 170.299 146.727 167.013 145.276 165.136C143.825 163.259 141.223 162.32 137.468 162.32C134.652 162.32 131.836 162.832 129.02 163.856C126.289 164.88 123.047 166.843 119.292 169.744V208.528L130.812 213.008L128.252 218.128H92.54V214.16L103.932 205.2V168.976L92.54 162.32V158.352L114.428 147.6L118.652 164.24L136.828 149.776C138.62 149.093 140.967 148.752 143.868 148.752C149.671 148.752 154.279 150.544 157.692 154.128C161.105 157.627 162.812 162.405 162.812 168.464V208.4L174.332 213.008L171.772 218.128ZM252.124 154L219.74 218H210.012L190.044 169.232L178.14 162.32V158.352L200.028 147.6L204.892 166.928L220.508 205.072L238.556 167.568L221.532 155.152L224.092 150.032H252.124V154Z" fill="#FAFAFE"/>
</svg>
