<svg width="217" height="102" viewBox="0 0 217 102" fill="none" xmlns="http://www.w3.org/2000/svg">
<path d="M40.592 101H1.68V97.032L13.712 87.56V9.992L0.4 5.51199L2.96 0.391998H41.872V4.35999L29.712 13.832V91.272L43.152 95.88L40.592 101ZM135.772 101.128H111.452V57.992C111.452 53.2987 110.727 50.0133 109.276 48.136C107.825 46.2587 105.223 45.32 101.468 45.32C98.652 45.32 95.836 45.832 93.02 46.856C90.2893 47.88 87.0467 49.8427 83.292 52.744V91.528L94.812 96.008L92.252 101.128H56.54V97.16L67.932 88.2V51.976L56.54 45.32V41.352L78.428 30.6L82.652 47.24L100.828 32.776C102.62 32.0933 104.967 31.752 107.868 31.752C113.671 31.752 118.279 33.544 121.692 37.128C125.105 40.6267 126.812 45.4053 126.812 51.464V91.4L138.332 96.008L135.772 101.128ZM216.124 37L183.74 101H174.012L154.044 52.232L142.14 45.32V41.352L164.028 30.6L168.892 49.928L184.508 88.072L202.556 50.568L185.532 38.152L188.092 33.032H216.124V37Z" fill="#FAFAFE"/>
</svg>
